<svg width="20" height="21" viewBox="0 0 20 21" fill="none" xmlns="http://www.w3.org/2000/svg">
<path d="M5.83594 10.0593C5.83594 9.89351 5.90179 9.73454 6.019 9.61733C6.13621 9.50012 6.29518 9.43427 6.46094 9.43427H9.37177V6.52344C9.37177 6.35768 9.43762 6.19871 9.55483 6.0815C9.67204 5.96429 9.83101 5.89844 9.99677 5.89844C10.1625 5.89844 10.3215 5.96429 10.4387 6.0815C10.5559 6.19871 10.6218 6.35768 10.6218 6.52344V9.43427H13.5326C13.6984 9.43427 13.8573 9.50012 13.9745 9.61733C14.0918 9.73454 14.1576 9.89351 14.1576 10.0593C14.1576 10.225 14.0918 10.384 13.9745 10.5012C13.8573 10.6184 13.6984 10.6843 13.5326 10.6843H10.6218V13.5951C10.6218 13.7609 10.5559 13.9198 10.4387 14.037C10.3215 14.1543 10.1625 14.2201 9.99677 14.2201C9.83101 14.2201 9.67204 14.1543 9.55483 14.037C9.43762 13.9198 9.37177 13.7609 9.37177 13.5951V10.6843H6.46094C6.29518 10.6843 6.13621 10.6184 6.019 10.5012C5.90179 10.384 5.83594 10.225 5.83594 10.0593Z" fill="white"/>
<path fill-rule="evenodd" clip-rule="evenodd" d="M6.09771 3.20004C8.69144 2.91249 11.309 2.91249 13.9027 3.20004C15.4252 3.37004 16.6544 4.5692 16.8327 6.10004C17.141 8.73087 17.141 11.3884 16.8327 14.0192C16.6535 15.55 15.4244 16.7484 13.9027 16.9192C11.309 17.2068 8.69144 17.2068 6.09771 16.9192C4.57521 16.7484 3.34605 15.55 3.16771 14.0192C2.86076 11.3884 2.86076 8.73084 3.16771 6.10004C3.34605 4.5692 4.57605 3.37004 6.09771 3.20004ZM13.7644 4.4417C11.2626 4.16439 8.73783 4.16439 6.23605 4.4417C5.77292 4.49308 5.34063 4.6991 5.00903 5.02647C4.67743 5.35383 4.46587 5.78344 4.40855 6.24587C4.11216 8.78001 4.11216 11.3401 4.40855 13.8742C4.46605 14.3365 4.67768 14.7659 5.00926 15.0931C5.34085 15.4203 5.77304 15.6262 6.23605 15.6775C8.71688 15.9542 11.2835 15.9542 13.7644 15.6775C14.2272 15.626 14.6592 15.42 14.9907 15.0929C15.3221 14.7657 15.5336 14.3364 15.591 13.8742C15.8874 11.3401 15.8874 8.78001 15.591 6.24587C15.5334 5.78386 15.3218 5.35474 14.9904 5.02772C14.659 4.7007 14.2271 4.49485 13.7644 4.44337" fill="white"/>
</svg>
