<svg width="24" height="25" viewBox="0 0 24 25" fill="none" xmlns="http://www.w3.org/2000/svg">
<path d="M16.2112 8.41082H7.79117C7.45875 8.41034 7.133 8.504 6.85161 8.68098C6.57023 8.85795 6.34471 9.11099 6.20117 9.41082C6.03314 9.76656 5.96842 10.1624 6.01438 10.5531C6.06035 10.9438 6.21516 11.3138 6.46117 11.6208L10.6712 16.7208C10.8364 16.9114 11.0406 17.0643 11.2701 17.1691C11.4996 17.2739 11.7489 17.3281 12.0012 17.3281C12.2534 17.3281 12.5027 17.2739 12.7322 17.1691C12.9617 17.0643 13.166 16.9114 13.3312 16.7208L17.5412 11.6208C17.7872 11.3138 17.942 10.9438 17.988 10.5531C18.0339 10.1624 17.9692 9.76656 17.8012 9.41082C17.6576 9.11099 17.4321 8.85795 17.1507 8.68098C16.8693 8.504 16.5436 8.41034 16.2112 8.41082Z" fill="black"/>
</svg>
