<svg width="24" height="24" viewBox="0 0 24 24" fill="none" xmlns="http://www.w3.org/2000/svg">
<path d="M19.2987 9.566H4.7027C4.40731 9.56633 4.11582 9.63342 3.85002 9.76226C3.58421 9.89109 3.35096 10.0783 3.1677 10.31C2.9852 10.541 2.85768 10.8105 2.79478 11.0981C2.73189 11.3858 2.73528 11.6839 2.8047 11.97L4.3697 18.378C4.59629 19.2036 5.08825 19.9317 5.7697 20.45C6.4517 20.969 7.2867 21.25 8.1457 21.25H15.8537C16.7127 21.25 17.5477 20.969 18.2297 20.45C18.9111 19.9317 19.4031 19.2036 19.6297 18.378L21.1947 11.971C21.3 11.5391 21.2538 11.084 21.0638 10.6821C20.8737 10.2802 20.5514 9.95568 20.1507 9.763C19.8841 9.635 19.5924 9.56772 19.2967 9.566M8.0877 13.46V17.355M12.0007 13.46V17.355M15.9137 13.46V17.355M18.8487 9.566C18.8484 8.67005 18.671 7.78299 18.3267 6.95582C17.9824 6.12864 17.4781 5.37765 16.8427 4.746C15.5562 3.4665 13.8152 2.7488 12.0007 2.75C10.1862 2.7488 8.44521 3.4665 7.1587 4.746C6.52346 5.37773 6.01932 6.12876 5.67523 6.95593C5.33115 7.78311 5.15391 8.67012 5.1537 9.566" stroke="black" stroke-opacity="0.5" stroke-width="1.5" stroke-linecap="round" stroke-linejoin="round"/>
</svg>
