<svg width="25" height="25" viewBox="0 0 25 25" fill="none" xmlns="http://www.w3.org/2000/svg">
<rect width="25" height="25" rx="12.5" fill="white"/>
<path d="M8.68114 14.9419H11.0591L14.9574 11.0436C15.0744 10.9266 15.1622 10.7933 15.2209 10.6436C15.2797 10.4939 15.3088 10.3478 15.3083 10.2054C15.3077 10.063 15.2753 9.92345 15.2108 9.78675C15.1464 9.65005 15.0619 9.52323 14.9574 9.40628L14.2557 8.6656C14.1388 8.54865 14.0088 8.46107 13.8659 8.40285C13.723 8.34464 13.5735 8.31527 13.4176 8.31475C13.2746 8.31475 13.1286 8.34412 12.9794 8.40285C12.8302 8.46159 12.6969 8.54917 12.5794 8.6656L8.68114 12.5639V14.9419ZM9.85064 13.7724V13.0317L11.8193 11.0631L12.2091 11.4139L12.56 11.8037L10.5913 13.7724H9.85064ZM12.2091 11.4139L12.56 11.8037L11.8193 11.0631L12.2091 11.4139ZM12.7159 14.9419H18.0371V13.3825H14.2752L12.7159 14.9419ZM5.5625 21.1792V7.14526C5.5625 6.71645 5.71531 6.34949 6.02094 6.04438C6.32657 5.73927 6.69353 5.58646 7.12182 5.58594H19.5964C20.0252 5.58594 20.3924 5.73875 20.6981 6.04438C21.0037 6.35001 21.1562 6.71697 21.1557 7.14526V16.5012C21.1557 16.93 21.0032 17.2972 20.6981 17.6029C20.393 17.9085 20.0257 18.061 19.5964 18.0605H8.68114L5.5625 21.1792ZM8.01843 16.5012H19.5964V7.14526H7.12182V17.3783L8.01843 16.5012Z" fill="#8CBBE5"/>
</svg>
