<svg width="24" height="24" viewBox="0 0 24 24" fill="none" xmlns="http://www.w3.org/2000/svg">
<path d="M21 18.9978V12.2648C21 11.7223 20.8896 11.1854 20.6756 10.6868C20.4616 10.1883 20.1483 9.7385 19.755 9.36481L13.378 3.30781C13.0063 2.9547 12.5132 2.75781 12.0005 2.75781C11.4878 2.75781 10.9947 2.9547 10.623 3.30781L4.245 9.36481C3.85165 9.7385 3.53844 10.1883 3.3244 10.6868C3.11037 11.1854 3 11.7223 3 12.2648V18.9978C3 19.5282 3.21071 20.037 3.58579 20.412C3.96086 20.7871 4.46957 20.9978 5 20.9978H19C19.5304 20.9978 20.0391 20.7871 20.4142 20.412C20.7893 20.037 21 19.5282 21 18.9978Z" stroke="black" stroke-opacity="0.5" stroke-width="2" stroke-linecap="round" stroke-linejoin="round"/>
</svg>
