<svg width="4" height="9" viewBox="0 0 4 9" fill="none" xmlns="http://www.w3.org/2000/svg">
<path d="M1.67969 8.33301C1.30916 8.33301 0.991334 8.20364 0.726214 7.94491C0.464288 7.68299 0.334922 7.36516 0.338116 6.99144C0.334922 6.6273 0.464288 6.31586 0.726214 6.05713C0.991334 5.7984 1.30916 5.66903 1.67969 5.66903C2.03105 5.66903 2.34089 5.7984 2.6092 6.05713C2.88071 6.31586 3.01806 6.6273 3.02126 6.99144C3.01806 7.24059 2.95258 7.46738 2.82481 7.67181C2.70024 7.87304 2.53733 8.03435 2.3361 8.15573C2.13486 8.27392 1.91606 8.33301 1.67969 8.33301ZM1.67969 3.38836C1.30916 3.38836 0.991334 3.259 0.726214 3.00026C0.464288 2.73834 0.334922 2.42051 0.338116 2.04679C0.334922 1.68265 0.464288 1.37121 0.726214 1.11248C0.991334 0.853751 1.30916 0.724385 1.67969 0.724385C2.03105 0.724385 2.34089 0.853751 2.6092 1.11248C2.88071 1.37121 3.01806 1.68265 3.02126 2.04679C3.01806 2.29594 2.95258 2.52273 2.82481 2.72716C2.70024 2.92839 2.53733 3.0897 2.3361 3.21108C2.13486 3.32927 1.91606 3.38836 1.67969 3.38836Z" fill="white"/>
</svg>
