<svg width="22" height="22" viewBox="0 0 22 22" fill="none" xmlns="http://www.w3.org/2000/svg">
<path d="M15.3073 2.75C13.4336 2.75 11.8157 3.84725 11.0026 5.44775C10.1895 3.84725 8.5716 2.75 6.69794 2.75C4.0121 2.75 1.83594 5.00225 1.83594 7.77425C1.83594 10.5463 3.50152 13.0873 5.65385 15.1745C7.80619 17.2618 11.0026 19.25 11.0026 19.25C11.0026 19.25 14.0954 17.2948 16.3514 15.1745C18.7576 12.914 20.1693 10.5545 20.1693 7.77425C20.1693 4.994 17.9931 2.75 15.3073 2.75Z" fill="#FF644D"/>
<path d="M15.3073 2.75C13.4336 2.75 11.8157 3.84725 11.0026 5.44775C10.1895 3.84725 8.5716 2.75 6.69794 2.75C4.0121 2.75 1.83594 5.00225 1.83594 7.77425C1.83594 10.5463 3.50152 13.0873 5.65385 15.1745C7.80619 17.2618 11.0026 19.25 11.0026 19.25C11.0026 19.25 14.0954 17.2948 16.3514 15.1745C18.7576 12.914 20.1693 10.5545 20.1693 7.77425C20.1693 4.994 17.9931 2.75 15.3073 2.75Z" stroke="black" stroke-linecap="round" stroke-linejoin="round"/>
</svg>
