<svg width="25" height="25" viewBox="0 0 25 25" fill="none" xmlns="http://www.w3.org/2000/svg">
<rect width="25" height="25" rx="12.5" fill="white"/>
<path d="M12.3545 20.1792C10.5483 19.7244 9.05703 18.6879 7.88078 17.0699C6.70453 15.4518 6.11667 13.6555 6.11719 11.6809V6.92492L12.3545 4.58594L18.5918 6.92492V11.6809C18.5918 12.7854 18.4033 13.8478 18.0265 14.8681C17.6497 15.8884 17.1104 16.7882 16.4087 17.5673L13.9138 15.0724C13.6799 15.2153 13.4299 15.3226 13.1638 15.3944C12.8976 15.4661 12.6279 15.5017 12.3545 15.5012C11.4968 15.5012 10.7627 15.1958 10.1519 14.5851C9.5412 13.9744 9.23583 13.2402 9.23583 12.3825C9.23583 11.5249 9.5412 10.7907 10.1519 10.18C10.7627 9.56927 11.4968 9.2639 12.3545 9.2639C13.2121 9.2639 13.9463 9.56927 14.557 10.18C15.1678 10.7907 15.4731 11.5249 15.4731 12.3825C15.4731 12.6684 15.4375 12.9447 15.3663 13.2113C15.2951 13.478 15.1878 13.7345 15.0443 13.9809L16.2138 15.1503C16.4737 14.6176 16.6751 14.0588 16.818 13.4741C16.961 12.8893 17.0324 12.2916 17.0324 11.6809V7.99695L12.3545 6.24272L7.67651 7.99695V11.6809C7.67651 13.2532 8.11832 14.6825 9.00193 15.969C9.88555 17.2554 11.0031 18.1131 12.3545 18.5419C12.6923 18.4379 13.0141 18.3049 13.3197 18.1427C13.6253 17.9805 13.9273 17.7887 14.2257 17.5673L15.3172 18.6588C14.8884 19.0097 14.424 19.315 13.9239 19.5749C13.4239 19.8348 12.9008 20.0362 12.3545 20.1792ZM12.3545 13.9419C12.7833 13.9419 13.1505 13.7893 13.4561 13.4842C13.7618 13.1791 13.9143 12.8119 13.9138 12.3825C13.9133 11.9532 13.7607 11.5863 13.4561 11.2817C13.1515 10.9771 12.7843 10.8243 12.3545 10.8232C11.9246 10.8222 11.5577 10.975 11.2536 11.2817C10.9495 11.5883 10.7967 11.9553 10.7952 12.3825C10.7936 12.8098 10.9464 13.177 11.2536 13.4842C11.5608 13.7914 11.9277 13.9439 12.3545 13.9419Z" fill="#8CBBE5"/>
</svg>
