<svg width="25" height="25" viewBox="0 0 25 25" fill="none" xmlns="http://www.w3.org/2000/svg">
<rect width="25" height="25" rx="12.5" fill="white"/>
<path d="M10.4852 15.2033L12.3563 13.7609L14.2275 15.2033L13.5258 12.8253L15.2801 11.5779H13.097L12.3563 9.16094L11.6157 11.5779H9.43261L11.1868 12.8253L10.4852 15.2033ZM12.3563 15.7101L9.47159 17.9126C9.32865 18.0296 9.17272 18.0849 9.00379 18.0787C8.83487 18.0725 8.68543 18.0236 8.55549 17.9321C8.42555 17.8406 8.32497 17.7172 8.25376 17.5618C8.18255 17.4064 8.17917 17.2374 8.24362 17.055L9.35464 13.4491L6.52837 11.4414C6.37244 11.3375 6.27498 11.2011 6.236 11.0321C6.19701 10.8632 6.20351 10.7073 6.25549 10.5643C6.30747 10.4214 6.39843 10.2946 6.52837 10.1839C6.65831 10.0731 6.81425 10.018 6.99617 10.0186H10.4852L11.6157 6.2762C11.6806 6.09427 11.7815 5.95446 11.9182 5.85674C12.0549 5.75902 12.2009 5.71042 12.3563 5.71094C12.5117 5.71146 12.6581 5.76032 12.7953 5.85752C12.9325 5.95472 13.0331 6.09427 13.097 6.2762L14.2275 10.0186H17.7165C17.8984 10.0186 18.0544 10.0739 18.1843 10.1846C18.3142 10.2953 18.4052 10.4219 18.4572 10.5643C18.5092 10.7067 18.5157 10.8627 18.4767 11.0321C18.4377 11.2016 18.3402 11.338 18.1843 11.4414L15.358 13.4491L16.469 17.055C16.534 17.2369 16.5309 17.4059 16.4597 17.5618C16.3885 17.7177 16.2876 17.8412 16.1572 17.9321C16.0267 18.0231 15.8773 18.0719 15.7089 18.0787C15.5405 18.0855 15.3845 18.0301 15.2411 17.9126L12.3563 15.7101Z" fill="#8CBBE5"/>
</svg>
