<svg width="20" height="19" viewBox="0 0 20 19" fill="none" xmlns="http://www.w3.org/2000/svg">
<path d="M12.4533 12.047H12.5519M7.53906 7.13281H7.6372" stroke="black" stroke-width="1.5" stroke-linecap="round" stroke-linejoin="round"/>
<path d="M7.09375 12.5381L12.9912 6.64062" stroke="black" stroke-linecap="round" stroke-linejoin="round"/>
<path d="M18.1232 6.96466C17.8284 6.07014 18.0251 4.9199 17.4844 4.18296C16.9438 3.44602 15.7841 3.25871 15.0368 2.7086C14.2899 2.15802 13.779 1.1262 12.8844 0.840764C11.9899 0.5558 11.0265 1.09648 10.0438 1.09648C9.061 1.09648 8.07778 0.5558 7.20354 0.840764C6.32837 1.1262 5.7976 2.17783 5.05074 2.7086C4.30342 3.23937 3.16357 3.42573 2.60307 4.18296C2.04258 4.94019 2.25913 6.07014 1.96426 6.96466C1.66939 7.85918 0.84375 8.60603 0.84375 9.58878C0.84375 10.5715 1.68921 11.3486 1.96426 12.2134C2.23932 13.0782 2.0624 14.2577 2.60307 14.9946C3.14375 15.732 4.30342 15.9189 5.05074 16.4595C5.79807 17.0002 6.30855 18.0518 7.20307 18.3368C8.0976 18.6218 9.061 18.0811 10.0438 18.0811C11.0265 18.0811 12.0097 18.6218 12.884 18.3368C13.7591 18.0518 14.2899 16.9997 15.0368 16.4591C15.7841 15.9189 16.9438 15.7514 17.4844 14.9946C18.0251 14.2378 17.8284 13.1074 18.1232 12.2134C18.4181 11.3189 19.2438 10.5715 19.2438 9.58878C19.2438 8.60603 18.3983 7.82899 18.1232 6.96466Z" stroke="#FF644D" stroke-linecap="round" stroke-linejoin="round"/>
</svg>
