<svg width="24" height="24" viewBox="0 0 24 24" fill="none" xmlns="http://www.w3.org/2000/svg">
<path d="M4.34063 23.1593L10.9375 16.5673L7.52648 13.1562L0.929614 19.7531C0.388259 20.2945 0.388259 21.1856 0.929614 21.7269L2.36205 23.1593C2.9082 23.7007 3.80407 23.7007 4.34063 23.1593Z" fill="#FEFDFE"/>
<path d="M9.00072 13.3079L10.7877 15.0948L12.8237 13.0588C15.5976 14.9846 19.4398 14.7164 21.9118 12.2443C24.6856 9.47048 24.6856 4.96238 21.9118 2.18374C19.138 -0.594893 14.6299 -0.590103 11.8512 2.18374C9.37919 4.65577 9.11091 8.49796 11.0368 11.2718L9.00072 13.3079ZM13.2501 3.56348C15.2622 1.55136 18.5247 1.55136 20.5321 3.56348C22.5442 5.5756 22.5442 8.8381 20.5321 10.8454C18.5199 12.8575 15.2574 12.8575 13.2501 10.8454C11.238 8.8381 11.238 5.5756 13.2501 3.56348Z" fill="#FEFDFE"/>
</svg>
