<svg width="28" height="28" viewBox="0 0 28 28" fill="none" xmlns="http://www.w3.org/2000/svg">
<path d="M14 17.5C15.933 17.5 17.5 15.933 17.5 14C17.5 12.067 15.933 10.5 14 10.5C12.067 10.5 10.5 12.067 10.5 14C10.5 15.933 12.067 17.5 14 17.5Z" stroke="black" stroke-width="1.5"/>
<path d="M16.0587 2.51327C15.6305 2.33594 15.0869 2.33594 13.9995 2.33594C12.9122 2.33594 12.3685 2.33594 11.9404 2.51327C11.6571 2.63054 11.3997 2.80248 11.1829 3.01928C10.9661 3.23608 10.7941 3.49348 10.6769 3.77677C10.5695 4.03694 10.5264 4.34144 10.51 4.7836C10.5025 5.10319 10.4139 5.41562 10.2527 5.69168C10.0915 5.96774 9.86297 6.19841 9.58838 6.3621C9.30932 6.51817 8.99523 6.60089 8.6755 6.60252C8.35577 6.60415 8.04085 6.52465 7.76022 6.37144C7.36822 6.16377 7.08472 6.04944 6.80355 6.0121C6.19025 5.93145 5.57003 6.09763 5.07922 6.4741C4.71288 6.7576 4.43988 7.22777 3.89622 8.16927C3.35255 9.11077 3.07955 9.58094 3.02005 10.0418C2.97996 10.3456 3.00012 10.6544 3.07939 10.9505C3.15866 11.2465 3.29549 11.5241 3.48205 11.7673C3.65472 11.9913 3.89622 12.1791 4.27072 12.4148C4.82255 12.7613 5.17722 13.3516 5.17722 14.0026C5.17722 14.6536 4.82255 15.2439 4.27072 15.5893C3.89622 15.8261 3.65355 16.0139 3.48205 16.2379C3.29549 16.4811 3.15866 16.7587 3.07939 17.0547C3.00012 17.3508 2.97996 17.6596 3.02005 17.9634C3.08072 18.4231 3.35255 18.8944 3.89505 19.8359C4.43988 20.7774 4.71172 21.2476 5.07922 21.5311C5.32239 21.7177 5.59994 21.8545 5.89601 21.9338C6.19207 22.013 6.50085 22.0332 6.80472 21.9931C7.08472 21.9558 7.36822 21.8414 7.76022 21.6338C8.04085 21.4806 8.35577 21.4011 8.6755 21.4027C8.99523 21.4043 9.30932 21.487 9.58838 21.6431C10.1519 21.9698 10.4867 22.5706 10.51 23.2216C10.5264 23.6649 10.5684 23.9683 10.6769 24.2284C10.7941 24.5117 10.9661 24.7691 11.1829 24.9859C11.3997 25.2027 11.6571 25.3747 11.9404 25.4919C12.3685 25.6693 12.9122 25.6693 13.9995 25.6693C15.0869 25.6693 15.6305 25.6693 16.0587 25.4919C16.342 25.3747 16.5994 25.2027 16.8162 24.9859C17.033 24.7691 17.2049 24.5117 17.3222 24.2284C17.4295 23.9683 17.4727 23.6649 17.489 23.2216C17.5124 22.5706 17.8472 21.9686 18.4107 21.6431C18.6898 21.487 19.0039 21.4043 19.3236 21.4027C19.6433 21.4011 19.9582 21.4806 20.2389 21.6338C20.6309 21.8414 20.9144 21.9558 21.1944 21.9931C21.4982 22.0332 21.807 22.013 22.1031 21.9338C22.3992 21.8545 22.6767 21.7177 22.9199 21.5311C23.2874 21.2488 23.5592 20.7774 24.1029 19.8359C24.6465 18.8944 24.9195 18.4243 24.979 17.9634C25.0191 17.6596 24.999 17.3508 24.9197 17.0547C24.8404 16.7587 24.7036 16.4811 24.517 16.2379C24.3444 16.0139 24.1029 15.8261 23.7284 15.5904C23.4553 15.4241 23.2289 15.1911 23.0703 14.9134C22.9118 14.6357 22.8263 14.3223 22.8219 14.0026C22.8219 13.3516 23.1765 12.7613 23.7284 12.4159C24.1029 12.1791 24.3455 11.9913 24.517 11.7673C24.7036 11.5241 24.8404 11.2465 24.9197 10.9505C24.999 10.6544 25.0191 10.3456 24.979 10.0418C24.9184 9.5821 24.6465 9.11077 24.104 8.16927C23.5592 7.22777 23.2874 6.7576 22.9199 6.4741C22.6767 6.28754 22.3992 6.15072 22.1031 6.07145C21.807 5.99218 21.4982 5.97201 21.1944 6.0121C20.9144 6.04944 20.6309 6.16377 20.2377 6.37144C19.9572 6.52444 19.6425 6.60383 19.323 6.6022C19.0035 6.60057 18.6896 6.51796 18.4107 6.3621C18.1361 6.19841 17.9076 5.96774 17.7464 5.69168C17.5852 5.41562 17.4966 5.10319 17.489 4.7836C17.4727 4.34027 17.4307 4.03694 17.3222 3.77677C17.2049 3.49348 17.033 3.23608 16.8162 3.01928C16.5994 2.80248 16.342 2.63054 16.0587 2.51327Z" stroke="black" stroke-width="1.5"/>
</svg>
